<?xml version="1.0" encoding="utf-8"?>
<!-- Generator: Adobe Illustrator 25.2.0, SVG Export Plug-In . SVG Version: 6.00 Build 0)  -->
<svg version="1.1" id="Livello_1" xmlns="http://www.w3.org/2000/svg" xmlns:xlink="http://www.w3.org/1999/xlink" x="0px" y="0px"
	 viewBox="0 0 602.9 256.6" style="enable-background:new 0 0 602.9 256.6;" xml:space="preserve">
<style type="text/css">
	.st0{fill:#1B3B6B;}
	.st1{fill:#F29909;}
	.st2{fill:none;stroke:#F29909;stroke-width:7.3202;stroke-miterlimit:10;}
</style>
<g>
	<g>
		<g>
			<g>
				<g>
					<path class="st0" d="M41.7,231.8h-23V19.9h23V231.8z"/>
				</g>
			</g>
			<g>
				<g>
					<path class="st0" d="M57,88.3c0-22.1,7-39.9,21.1-53.6c14.3-14.2,33.4-21.4,57.3-21.4c23.9,0,43.1,7.1,57.6,21.4
						C207,48.6,214,66.4,214,88.3v143.5h-23v-135c0-16.6-4.8-29.3-14.3-38.1c-9.5-8.8-23.3-13.2-41.5-13.2
						c-18.1,0-31.9,4.4-41.3,13.2C84.7,67.5,80,80.2,80,96.8v135H57V88.3z"/>
				</g>
			</g>
			<g>
				<g>
					<path class="st0" d="M399.1,121.8c0,32.9-8.1,59.4-24.2,79.7c-16.1,20.2-37.6,30.4-64.2,30.4c-24.4,0-44.7-9-61.1-27.1
						c-18.5-20.5-27.8-47.2-27.8-80.1c0-32.4,9.4-59,28.1-79.9c16.5-18.2,37.3-27.4,62.6-27.4c30.5,0,55.5,16.3,75,48.9l-21.4,15.6
						c-14.4-22.5-32.9-33.8-55.5-33.8c-17.6,0-32.4,6.3-44.2,19c-13.8,14.7-20.7,33.9-20.7,57.5c0,22.7,5.9,41.1,17.8,55.3
						c11.9,14.1,27.6,21.2,47.1,21.2c30.6,0,50.6-17.4,59.7-52.2h-51.7v-30.2h80.5V121.8z"/>
				</g>
			</g>
		</g>
	</g>
	<g>
		<path class="st1" d="M397.9,220l26.7-34.5c1-1.4,1.7-2.7,2.1-3.9c0.2-1.1,0.4-2.2,0.4-3.2c0-2.6-0.8-5-2.4-6.9c-1.7-2-4-3-7-3
			c-2.7,0-4.9,0.9-6.7,2.7c-1.8,1.8-2.9,4.3-3.3,7.5h-9.8c0.2-5.9,2.2-10.7,5.7-14.5c3.6-3.7,8-5.6,13.3-5.7
			c5.9,0.1,10.6,2,14.3,5.8c3.7,3.8,5.6,8.6,5.7,14.4c0,4.6-1.4,8.8-4.1,12.4l-22,28.4h26.1v10h-38.9V220z"/>
		<path class="st1" d="M474.1,158.3c0,0-0.1,0.3-0.5,1c-0.3,0.7-0.8,1.6-1.4,2.8c-0.6,1.2-1.3,2.6-2,4.1c-0.8,1.5-1.6,3.2-2.4,4.9
			c-0.9,1.7-1.7,3.4-2.6,5.2c-0.9,1.7-1.7,3.4-2.6,5s-1.6,3-2.2,4.3c-0.7,1.3-1.2,2.3-1.7,3.1c0.9-0.5,2-0.9,3.2-1
			c1.2-0.1,2.5-0.1,4.1-0.1c2.2,0.1,4.2,0.5,5.8,1.2c1.7,0.7,3.1,1.6,4.3,2.7c1.2,1.1,2.2,2.2,3,3.6c0.8,1.3,1.4,2.6,1.9,3.8
			c0.5,1.2,0.8,2.4,0.9,3.5c0.2,1.1,0.3,1.9,0.3,2.5c0,0.2,0,0.5,0,1.1c0,0.5,0,1.1,0,1.7c0,0.6,0,1.3,0,1.9c0,0.6,0,1.2-0.1,1.6
			c0,0.2-0.1,0.8-0.3,1.8c-0.2,1-0.5,2.1-1,3.4c-0.5,1.3-1.1,2.7-2,4.2c-0.9,1.5-2,2.9-3.4,4.3c-1.4,1.3-3.1,2.5-5.2,3.5
			c-2,1-4.4,1.6-7.2,1.8c-2.9,0.3-5.5,0.1-7.8-0.6c-2.3-0.6-4.2-1.6-5.8-2.8c-1.6-1.2-3-2.6-4.1-4.1c-1.1-1.6-2-3.2-2.6-4.8
			c-0.6-1.6-1-3.2-1.3-4.7c-0.2-1.5-0.2-2.8-0.1-3.9c0.2-1.6,0.4-3,0.6-4.2c0.2-1.2,0.5-2.4,0.8-3.6c0.3-1.1,0.7-2.2,1-3.3
			s0.8-2.3,1.4-3.6c0.1-0.3,0.5-1.1,1.1-2.3s1.3-2.7,2.2-4.5c0.9-1.8,1.8-3.7,2.9-5.8c1.1-2.1,2.1-4.3,3.2-6.5
			c2.5-5.1,5.3-10.8,8.5-17.1H474.1z M472.1,209.9c0-1.2,0-2.6-0.1-4.1c-0.1-1.5-0.5-2.9-1.1-4.2c-0.6-1.3-1.7-2.5-3.1-3.5
			c-1.4-1-3.4-1.5-6-1.7c-1.2-0.1-2.3,0-3.3,0.4c-1,0.4-1.9,0.8-2.7,1.5c-0.8,0.6-1.4,1.3-2,2.1c-0.6,0.8-1,1.6-1.4,2.3
			c-0.4,0.8-0.6,1.5-0.8,2.2c-0.2,0.7-0.2,1.2-0.2,1.5c0,0.8,0,1.7,0,2.7c0,1,0.1,2,0.3,2.9s0.5,1.9,0.9,2.9c0.4,0.9,1,1.7,1.8,2.4
			c0.8,0.7,1.8,1.3,3,1.7s2.7,0.7,4.5,0.7c1.4,0,2.7-0.2,3.8-0.6c1.1-0.4,2-0.9,2.8-1.5s1.4-1.3,1.9-2.1s0.9-1.5,1.1-2.3
			c0.3-0.7,0.5-1.4,0.6-2C472,210.6,472.1,210.2,472.1,209.9z"/>
	</g>
	<g>
		<path class="st1" d="M519.7,188.8h3.4c3.3,0,5.9-1,7.8-2.9c1.8-1.8,2.8-4.2,2.8-7.2c-0.1-3-1-5.4-2.9-7.3
			c-1.8-1.8-4.2-2.8-7.1-2.9c-2.1,0-4,0.7-5.7,2.1c-1.8,1.4-3,3.5-3.7,6.5h-9.8c0.5-5.2,2.5-9.6,6.1-13.2c3.5-3.5,7.7-5.3,12.6-5.4
			c6.2,0.1,11.1,2.1,14.8,6.1c3.5,3.9,5.3,8.6,5.3,13.9c0,2.7-0.5,5.3-1.4,7.8c-1.1,2.5-3.1,4.8-6,6.7c3,1.9,5.1,4.3,6.4,7
			c1.3,2.7,1.9,5.5,1.9,8.5c-0.1,6.6-2,11.8-5.9,15.6c-3.8,3.9-8.8,5.9-14.8,5.9c-4.6,0-8.8-1.5-12.3-4.6c-3.6-3.1-5.9-7.6-7-13.4
			h9.8c0.9,2.4,2.1,4.3,3.7,5.7c1.6,1.5,3.8,2.3,6.5,2.3c2.9,0,5.3-1,7.3-3.1c2-1.9,3-4.6,3.1-8.1c-0.1-3.6-1.1-6.4-3.1-8.3
			c-2-1.9-4.5-2.9-7.5-2.9h-4.2V188.8z"/>
		<path class="st1" d="M549.1,178.7c0.1-6.5,2.1-11.5,6-15c3.7-3.5,8.2-5.2,13.3-5.2c5.3,0,9.8,1.7,13.5,5.2c3.8,3.5,5.7,8.5,5.9,15
			v31.1c-0.1,6.5-2.1,11.5-5.9,15c-3.7,3.5-8.2,5.2-13.5,5.3c-5.2-0.1-9.6-1.8-13.3-5.3c-4-3.5-6-8.5-6-15V178.7z M578.1,179.3
			c-0.2-7.1-3.4-10.7-9.6-10.8c-6.3,0.1-9.5,3.7-9.6,10.8v29.9c0.1,7.1,3.3,10.7,9.6,10.8c6.2-0.1,9.5-3.7,9.6-10.8V179.3z"/>
	</g>
	<line class="st2" x1="493.5" y1="248.4" x2="493.5" y2="137.9"/>
</g>
</svg>
